<svg width="30" height="24" viewBox="0 0 30 24" fill="none" xmlns="http://www.w3.org/2000/svg">
<path fill-rule="evenodd" clip-rule="evenodd" d="M22.7983 12.9398H16.4785L17.8187 10.9151C17.8187 10.9151 21.0527 10.8789 22.4988 10.8789C29.4175 10.8789 29.8169 2.00352 24.0417 2.00352C19.7428 2.00352 19.8819 7.49131 23.0494 7.49434C24.7102 7.49434 25.2276 5.88668 24.4622 5.07681L24.1143 5.23697C24.1437 5.38799 24.1388 5.54366 24.1001 5.69257C24.0614 5.84148 23.9898 5.97985 23.8906 6.09751C23.7914 6.21517 23.667 6.30915 23.5267 6.37255C23.3864 6.43594 23.2336 6.46714 23.0796 6.46386C21.7757 6.46386 21.2645 3.18207 24.0265 3.18207C27.8988 3.18207 27.3543 9.39511 22.9556 9.39511C17.6433 9.41929 16.8355 0 24.0326 0C32.3913 0 31.9587 12.9398 22.7983 12.9398ZM11.3991 12.9398C10.059 12.9398 4.17182 12.961 1.11329 12.9731L1.78792 10.9061H11.4869C16.0096 10.9061 15.8765 5.24301 12.4882 5.24301C10.7094 5.24301 10.1527 6.82045 11.0059 7.70889L11.4143 7.5034C11.2358 6.72979 11.859 6.32788 12.4549 6.32788C13.9676 6.32788 14.5726 9.68522 11.5171 9.68522C7.47539 9.68522 7.9443 3.18509 12.4882 3.18509C18.0275 3.16998 19.0409 12.9338 11.3991 12.9338V12.9398ZM19.2648 17.5331C22.3112 17.5331 21.685 20.8905 20.2026 20.8905C19.5976 20.8905 18.9925 20.4916 19.1619 19.7149L18.7535 19.5125C17.9004 20.3979 18.5175 21.93 20.2964 21.93C23.6847 21.93 23.8178 16.3878 19.295 16.3878H0L0.67463 14.3178L19.2073 14.3541C26.8491 14.3541 25.8629 24 20.2964 24C15.7585 23.9698 15.2321 17.5271 19.2708 17.5271L19.2648 17.5331Z" fill="#FF9137"/>
</svg>
