<svg width="34" height="35" viewBox="0 0 34 35" fill="none" xmlns="http://www.w3.org/2000/svg">
<path d="M16.9934 29.3275C17.515 29.3275 17.9489 29.7034 18.0388 30.199L18.0559 30.39V32.9746C18.0559 33.5614 17.5802 34.0371 16.9934 34.0371C16.4718 34.0371 16.038 33.6612 15.948 33.1655L15.9309 32.9746V30.39C15.9309 29.8032 16.4066 29.3275 16.9934 29.3275ZM27.0593 25.5658L27.2065 25.6887L29.034 27.5163C29.4489 27.9312 29.4489 28.6039 29.034 29.0189C28.6652 29.3877 28.0926 29.4287 27.6785 29.1418L27.5314 29.0189L25.7039 27.1913C25.2889 26.7764 25.2889 26.1037 25.7039 25.6887C26.0727 25.3199 26.6452 25.2789 27.0593 25.5658ZM8.28216 25.6887C8.65099 26.0576 8.69197 26.6301 8.4051 27.0442L8.28216 27.1913L6.45462 29.0189C6.03969 29.4338 5.36695 29.4338 4.95201 29.0189C4.58318 28.65 4.5422 28.0775 4.82907 27.6634L4.95201 27.5163L6.77955 25.6887C7.19448 25.2738 7.86723 25.2738 8.28216 25.6887ZM17.0154 7.47288C22.2842 7.47288 26.5553 11.744 26.5553 17.0128C26.5553 22.2815 22.2842 26.5527 17.0154 26.5527C11.7467 26.5527 7.47553 22.2815 7.47553 17.0128C7.47553 11.744 11.7467 7.47288 17.0154 7.47288ZM32.9375 15.9876C33.5243 15.9876 34 16.4633 34 17.0501C34 17.5717 33.6241 18.0055 33.1285 18.0954L32.9375 18.1126H30.353C29.7662 18.1126 29.2905 17.6369 29.2905 17.0501C29.2905 16.5285 29.6663 16.0946 30.162 16.0047L30.353 15.9876H32.9375ZM3.64703 15.9379C4.23384 15.9379 4.70954 16.4136 4.70954 17.0004C4.70954 17.522 4.33368 17.9558 3.83802 18.0458L3.64703 18.0629H1.06251C0.475701 18.0629 0 17.5872 0 17.0004C0 16.4788 0.375862 16.045 0.87152 15.955L1.06251 15.9379H3.64703ZM6.30747 4.89524L6.45462 5.01819L8.28216 6.84572C8.6971 7.26066 8.6971 7.9334 8.28216 8.34834C7.91333 8.71717 7.3408 8.75815 6.9267 8.47128L6.77955 8.34834L4.95201 6.5208C4.53708 6.10586 4.53708 5.43312 4.95201 5.01819C5.32084 4.64936 5.89337 4.60837 6.30747 4.89524ZM29.034 5.01819C29.4028 5.38702 29.4438 5.95955 29.1569 6.37365L29.034 6.5208L27.2065 8.34834C26.7915 8.76327 26.1188 8.76327 25.7039 8.34834C25.335 7.9795 25.294 7.40697 25.5809 6.99288L25.7039 6.84572L27.5314 5.01819C27.9463 4.60325 28.6191 4.60325 29.034 5.01819ZM17.0004 0C17.522 0 17.9558 0.375862 18.0458 0.87152L18.0629 1.06251V3.64703C18.0629 4.23384 17.5872 4.70954 17.0004 4.70954C16.4788 4.70954 16.045 4.33368 15.955 3.83802L15.9379 3.64703V1.06251C15.9379 0.475701 16.4136 0 17.0004 0Z" fill="black"/>
</svg>
