<svg width="34" height="22" viewBox="0 0 34 22" fill="none" xmlns="http://www.w3.org/2000/svg">
<path fill-rule="evenodd" clip-rule="evenodd" d="M33.7434 14.8918C22.8133 25.9361 5.25427 22.199 0.907277 16.5037C1.5819 14.8267 2.48512 13.2463 3.59245 11.8054L0 8.57871L1.67098 6.84744L5.10764 10.0831C6.13951 9.04913 7.30996 8.15648 8.58706 7.42951L5.72776 2.71032L7.88446 1.51635L10.6827 6.44149C12.1625 5.87174 13.7236 5.52938 15.3107 5.42661L15.3687 0H17.779L17.6049 5.43855C19.3156 5.56938 20.9985 5.93826 22.6025 6.53402L25.2419 1.19696L27.3466 2.09244L24.9028 7.50711C26.2649 8.20477 27.5566 9.02628 28.761 9.96073L31.9624 5.91316L34 7.51308L30.6214 11.5517C31.7413 12.5918 32.7846 13.708 33.7434 14.8918ZM7.80503 10.8502C6.5869 11.8614 5.5123 13.0268 4.6097 14.3158L5.3062 17.1276C6.92796 18.1342 8.68919 18.9083 10.536 19.426C8.03109 17.3096 7.1513 13.9188 7.80503 10.8502ZM21.3073 8.4802C18.0295 7.41159 14.7608 7.42354 11.7793 8.54289C8.07691 12.1696 9.52183 19.9095 16.7648 19.9095C23.409 19.9095 24.9792 12.08 21.3073 8.4802ZM25.1258 10.2234C25.9109 13.1337 25.3091 16.447 23.3418 18.7275C25.9761 17.7325 28.4592 16.3908 30.7222 14.7396C29.0802 12.9878 27.1967 11.4678 25.1258 10.2234ZM16.6884 17.4917C10.8323 17.4917 11.0981 9.31598 16.5937 9.31598C22.0893 9.31598 22.0221 17.4917 16.6884 17.4917Z" fill="#FF9137"/>
</svg>
