<svg width="20" height="17" viewBox="0 0 20 17" fill="none" xmlns="http://www.w3.org/2000/svg">
<path fill-rule="evenodd" clip-rule="evenodd" d="M15.798 13.08C18.11 10.224 18.066 5.592 15.622 2.8L17.022 1.516C20.074 5.004 20.12 10.798 17.222 14.354L15.798 13.08ZM14.508 11.916L13.15 10.68C14.35 9.138 14.314 6.68 13.01 5.196L14.35 3.96C16.242 6.124 16.282 9.698 14.508 11.914V11.916ZM5.108 3.936L10.908 0L11.024 16.11L4.968 12.012L5.108 3.936ZM0.0279999 10.396C0.0279999 9.714 0 6.78 0 5.364C0 4.142 0.612 3.742 1.6 3.742C2.51 3.742 3.4 3.832 3.4 3.832L3.458 12.194C3.458 12.194 2.308 12.33 1.638 12.33C0.526 12.328 0.0259998 11.738 0.0259998 10.394L0.0279999 10.396Z" fill="black"/>
</svg>
