<svg width="21" height="17" viewBox="0 0 21 17" fill="none" xmlns="http://www.w3.org/2000/svg">
<path fill-rule="evenodd" clip-rule="evenodd" d="M20.002 10.326L18.668 11.71L16.356 9.438L14.108 11.742L12.724 10.408L14.992 8.1L12.684 5.83L13.994 4.47L16.328 6.744L18.606 4.426L19.966 5.734L17.688 8.082L20.002 10.326ZM5.108 3.936L10.908 0L11.024 16.11L4.964 12.014L5.108 3.936ZM0.0280003 10.396C0.0280003 9.714 0 6.78 0 5.364C0 4.142 0.612 3.742 1.6 3.742C2.51 3.742 3.4 3.832 3.4 3.832L3.458 12.194C3.458 12.194 2.308 12.33 1.638 12.33C0.522 12.33 0.0220001 11.74 0.0220001 10.396H0.0280003Z" fill="black"/>
</svg>
