<svg width="28" height="27" viewBox="0 0 28 27" fill="none" xmlns="http://www.w3.org/2000/svg">
<path d="M14 0C18.9291 0 21.7253 3.53877 22.132 7.81243L22.2564 7.81243C25.4285 7.81243 28 10.5943 28 14.026C28 17.4576 25.4285 20.2395 22.2564 20.2395L19.252 20.2379C19.2855 20.3502 19.3036 20.4704 19.3036 20.5954C19.3036 21.2164 18.8559 21.7199 18.3036 21.7199C17.7514 21.7199 17.3036 21.2164 17.3036 20.5954C17.3036 20.4704 17.3218 20.3502 17.3553 20.2379L8.882 20.2373L5.89006 26.4135C5.62574 26.9588 5.01836 27.1599 4.53343 26.8627C4.10239 26.5985 3.91319 26.0295 4.0621 25.5234L4.13398 25.3372L6.604 20.2373L5.74359 20.2395C2.57149 20.2395 0 17.4576 0 14.026C0 10.5943 2.57149 7.81243 5.74362 7.81243L5.86799 7.81243C6.27703 3.51068 9.07087 0 14 0ZM17 24.7372C17.5523 24.7372 18 25.2406 18 25.8616C18 26.4826 17.5523 26.986 17 26.986C16.4477 26.986 16 26.4826 16 25.8616C16 25.2406 16.4477 24.7372 17 24.7372ZM12.6034 22.6237C13.0345 22.8841 13.2237 23.4448 13.0748 23.9436L13.0029 24.127L11.8782 26.408C11.6139 26.9454 11.0065 27.1436 10.5216 26.8507C10.0906 26.5903 9.90136 26.0296 10.0503 25.5308L10.1221 25.3473L11.2468 23.0664C11.5111 22.529 12.1185 22.3308 12.6034 22.6237ZM21 22.4884C21.5523 22.4884 22 22.9918 22 23.6128C22 24.2338 21.5523 24.7372 21 24.7372C20.4477 24.7372 20 24.2338 20 23.6128C20 22.9918 20.4477 22.4884 21 22.4884Z" fill="#FF9137"/>
</svg>
