<svg width="213" height="232" viewBox="0 0 213 232" fill="none" xmlns="http://www.w3.org/2000/svg">
<path fill-rule="evenodd" clip-rule="evenodd" d="M166.883 148.601C139.602 148.601 104.348 148.405 81.5794 148.405C64.7916 148.405 54.1103 138.851 49.6196 126.642H34.3846C-6.57767 126.642 -11.1524 69.7084 21.7938 57.3685C21.6259 28.8366 39.358 0 75.4938 0C95.6812 0 110.454 8.94479 119.562 21.7635C120.59 21.7635 121.66 21.7635 122.668 21.7635C149.004 21.7635 166.148 36.9979 173.535 56.3021C226.899 61.9388 227.55 148.601 166.883 148.601ZM164.658 71.9065C161.573 53.4293 147.87 36.8891 124.032 36.8891C92.8272 36.8891 80.9708 66.7703 85.9233 90.8407C53.9005 90.8407 55.5793 134.585 83.5939 134.585C103.278 134.585 143.589 133.889 167.281 133.889C208.684 133.889 209.02 67.6627 164.658 71.9065ZM38.4137 151.561C45.7584 164.118 51.1934 179.853 50.1652 190.735C48.2136 211.541 16.5895 207.95 18.2473 187.449C19.1707 176.393 28.0682 161.964 38.4137 151.561ZM83.573 178.874C90.9386 191.432 96.3527 207.167 95.3244 218.048C93.3938 238.854 61.7488 235.263 63.4066 214.74C64.3299 203.728 73.2275 189.277 83.573 178.874ZM147.954 162.007C155.32 174.565 160.755 190.3 159.727 201.182C157.775 221.987 126.151 218.396 127.788 197.895C128.732 186.839 137.609 172.41 147.954 162.007Z" fill="black" fill-opacity="0.19"/>
</svg>
